<?xml version="1.0" encoding="utf-8"?>
<!-- Generator: Adobe Illustrator 27.5.0, SVG Export Plug-In . SVG Version: 6.00 Build 0)  -->
<svg version="1.1" id="Capa_1" xmlns="http://www.w3.org/2000/svg" xmlns:xlink="http://www.w3.org/1999/xlink" x="0px" y="0px"
	 viewBox="0 0 2504 1798" style="enable-background:new 0 0 2504 1798;" xml:space="preserve">
<g>
	<path style="fill:#98B0D0;" d="M2335.961,865.075l-0.521-0.216l-0.521,0.216l-0.215,0.52c0,19.77-7.16,37.658-18.715,50.593
		c-11.558,12.935-27.49,20.913-45.083,20.914h-55.87l-0.521,0.216l-0.215,0.521v96.324l0.216,0.521l0.52,0.215h55.87
		c17.306,0.001,32.993-7.588,44.656-19.853l0.945-0.961l0.019-0.021l0.907-0.997l0.008-0.009
		c11.583-13.177,18.734-31.222,18.734-51.138v-96.324L2335.961,865.075z"/>
	<path style="fill:#C8DAEC;" d="M2267.161,762.516h-52.125l-0.521,0.216l-0.215,0.521v174.587l0.216,0.521l0.52,0.216h55.87
		c18.047,0.001,34.382-8.194,46.181-21.406c11.802-13.212,19.089-31.447,19.089-51.574v-34.063
		C2336.177,793.415,2305.277,762.516,2267.161,762.516z"/>
	<path style="fill:#98B0D0;" d="M270.5,937.102h-37.809c-17.594-0.001-33.526-7.978-45.084-20.914
		c-11.555-12.936-18.715-30.823-18.715-50.593l-0.215-0.52l-0.521-0.216l-0.521,0.216l-0.215,0.52v96.324
		c0,19.917,7.152,37.962,18.735,51.139l0.009,0.009l0.905,0.996l0.019,0.021l0.953,0.97c11.655,12.256,27.342,19.845,44.649,19.844
		H270.5l0.521-0.215l0.215-0.52v-96.324l-0.215-0.521L270.5,937.102z"/>
	<path style="fill:#C8DAEC;" d="M270.5,762.516h-34.064c-38.117,0.001-69.016,30.899-69.016,69.016v34.063
		c0,20.127,7.287,38.362,19.089,51.574c11.798,13.212,28.133,21.406,46.182,21.406H270.5l0.521-0.216l0.215-0.52V763.252
		l-0.215-0.521L270.5,762.516z"/>
	<path style="fill:#352E35;" d="M457.128,509.666H354.783c-46.955,0-85.019,38.064-85.019,85.019v168.567v174.587v96.324v168.567
		c0,46.954,38.064,85.019,85.019,85.019h102.344l0.521-0.216l0.215-0.52v-776.61l-0.215-0.52L457.128,509.666z"/>
	<path style="fill:#352E35;" d="M728.037,401.302h-85.285c-53.051,0.001-96.058,43.005-96.058,96.057v97.312v0.015v608.044v0.013
		v97.313c0,53.051,43.007,96.057,96.058,96.057l85.285-0.001l0.52-0.215l0.215-0.52V402.038l-0.215-0.52L728.037,401.302z"/>
	<path style="fill:#352E35;" d="M2130.753,509.666H2028.41l-0.521,0.215l-0.215,0.521v776.61l0.735,0.736l102.344,0.001
		c46.955-0.001,85.019-38.065,85.019-85.019v-168.567v-96.324V763.252V594.685C2215.771,547.73,2177.707,509.666,2130.753,509.666z"
		/>
	<path style="fill:#352E35;" d="M1938.841,594.685L1938.841,594.685L1938.841,594.685v-97.327c0-53.051-43.006-96.057-96.057-96.057
		h-85.285l-0.521,0.215l-0.215,0.521v993.338l0.735,0.735l85.286,0.001c53.052,0,96.058-43.005,96.058-96.057v-90.327l0.069-0.035
		l0.175-0.535c-0.162-2.122-0.244-4.266-0.244-6.429V594.685z"/>
	<polygon style="fill:#C8DAEC;" points="1661.174,762.516 824.362,762.516 823.841,762.731 823.626,763.252 823.626,937.838 
		823.841,938.359 824.362,938.574 1661.174,938.574 1661.695,938.358 1661.91,937.838 1661.91,763.252 1661.695,762.731 	"/>
	<polygon style="fill:#98B0D0;" points="1661.174,937.102 824.362,937.102 823.841,937.318 823.626,937.838 823.626,1034.163 
		823.841,1034.683 824.362,1034.898 1661.174,1034.898 1661.695,1034.683 1661.91,1034.163 1661.91,937.838 1661.695,937.318 	"/>
	<path style="fill:#473E49;" d="M332.208,542.776c-8.275,0.003-15.032,6.76-15.033,15.033v692.329
		c0.002,8.273,6.759,15.031,15.033,15.033c8.273-0.002,15.032-6.76,15.033-15.033V557.81
		C347.239,549.536,340.48,542.779,332.208,542.776z"/>
	<path style="fill:#473E49;" d="M606.131,427.639c-8.275,0.002-15.032,6.76-15.034,15.034v912.067
		c0.002,8.273,6.76,15.031,15.034,15.033c8.274-0.002,15.03-6.76,15.033-15.033V442.673
		C621.162,434.4,614.405,427.642,606.131,427.639z"/>
	<path style="fill:#473E49;" d="M2153.328,542.776c-8.274,0.003-15.031,6.76-15.033,15.033v692.329
		c0.002,8.273,6.759,15.031,15.033,15.033c8.274-0.002,15.032-6.76,15.034-15.033V557.81
		C2168.36,549.536,2161.602,542.779,2153.328,542.776z"/>
	<path style="fill:#473E49;" d="M1879.405,427.639c-8.273,0.002-15.031,6.76-15.033,15.034v912.067
		c0.002,8.273,6.76,15.031,15.033,15.033c8.274-0.002,15.032-6.76,15.034-15.033V442.673
		C1894.437,434.4,1887.679,427.642,1879.405,427.639z"/>
	<path style="fill:#ECF7FE;" d="M1611.508,789.607h-737.48c-14.482,0.002-26.32,11.84-26.322,26.322
		c0.002,14.482,11.84,26.319,26.322,26.322h737.48c14.481-0.002,26.319-11.84,26.321-26.322
		C1637.827,801.447,1625.989,789.609,1611.508,789.607z"/>
	<path style="fill:#1D171B;" d="M523.24,534.544l-0.545-0.496l-0.001,0.001c-9.518-9.348-21.204-16.498-34.265-20.561
		c-7.987-2.484-16.479-3.823-25.282-3.822h-6.019l-0.521,0.215l-0.215,0.521v776.61l0.215,0.52l0.521,0.216h6.019
		c20.809,0.001,39.855-7.502,54.631-19.914c18.562-15.589,30.384-38.953,30.388-65.091v-0.013V594.685v-0.015
		c-0.004-23.47-9.52-44.723-24.901-60.103L523.24,534.544z"/>
	<path style="fill:#1D171B;" d="M738.86,401.797c-3.228-0.328-6.506-0.496-9.82-0.496h-1.003l-0.521,0.215l-0.215,0.521v993.338
		l0.216,0.521l0.521,0.215h1.003c26.523,0.001,50.542-10.753,67.922-28.134c17.382-17.38,28.135-41.398,28.135-67.921v-0.001
		v-265.893v-96.324V763.252V497.359h0.001C825.097,447.622,787.3,406.717,738.86,401.797z"/>
	<path style="fill:#1D171B;" d="M1757.499,401.302h-1.003c-6.631,0-13.106,0.672-19.36,1.952c-3.126,0.64-6.198,1.431-9.205,2.366
		c-39.105,12.162-67.493,48.634-67.493,91.739v265.893v174.587v96.324v265.894c-0.001,29.507,13.334,55.882,34.272,73.499
		c16.703,14.056,38.245,22.556,61.787,22.556h1.003l0.52-0.215l0.215-0.52V402.038l-0.215-0.52L1757.499,401.302z"/>
	<path style="fill:#1D171B;" d="M2028.929,509.881l-0.52-0.216h-6.021c-20.54-0.001-39.386,7.286-54.08,19.414
		c-4.2,3.465-8.06,7.326-11.525,11.524c-3.466,4.199-6.536,8.736-9.152,13.555c-5.236,9.637-8.662,20.402-9.823,31.833
		c-0.291,2.858-0.439,5.758-0.439,8.692v0.001v608.044c0,8.802,1.338,17.295,3.823,25.282c1.656,5.325,3.821,10.425,6.439,15.244
		c3.927,7.228,8.869,13.822,14.639,19.592c15.384,15.384,36.643,24.901,60.119,24.901h6.021l0.52-0.216l0.215-0.52v-776.61
		L2028.929,509.881z"/>
</g>
</svg>
